HIERARCHY
ROOT hip
{
  OFFSET 0 90.174 2.4664
  CHANNELS 6 Xposition Yposition Zposition Zrotation Xrotation Yrotation
  JOINT abdomen
  {
    OFFSET 0 -1.186 -1.5018
    CHANNELS 6 Xposition Yposition Zposition Zrotation Xrotation Yrotation
    JOINT abdomen2
    {
      OFFSET 0 9.964 0.2134
      CHANNELS 6 Xposition Yposition Zposition Zrotation Xrotation Yrotation
      JOINT chest
      {
        OFFSET 0 13.134 -3.2573
        CHANNELS 6 Xposition Yposition Zposition Zrotation Xrotation Yrotation
        JOINT neck
        {
          OFFSET 0 20.686 -1.6905
          CHANNELS 6 Xposition Yposition Zposition Zrotation Xrotation Yrotation
          JOINT head
          {
            OFFSET 0 7.238 -0.1237
            CHANNELS 6 Xposition Yposition Zposition Zrotation Xrotation Yrotation
            End Site
            {
              OFFSET 0 0 0
            }
          }
        }
        JOINT lCollar
        {
          OFFSET 1.7069 20.075 5.0056
          CHANNELS 6 Xposition Yposition Zposition Zrotation Xrotation Yrotation
          JOINT lShldr
          {
            OFFSET 13.6458 -0.047 -4.849
            CHANNELS 6 Xposition Yposition Zposition Zrotation Xrotation Yrotation
            JOINT lForeArm
            {
              OFFSET 28.3255 -0.9759 2.2888
              CHANNELS 6 Xposition Yposition Zposition Zrotation Xrotation Yrotation
              JOINT lHand
              {
                OFFSET 22.1583 -0.53 10.8316
                CHANNELS 6 Xposition Yposition Zposition Zrotation Xrotation Yrotation
                JOINT lThumb1
                {
                  OFFSET 0.786 0.112 2.5817
                  CHANNELS 6 Xposition Yposition Zposition Zrotation Xrotation Yrotation
                  JOINT lThumb2
                  {
                    OFFSET 0.3601 -0.878 4.2331
                    CHANNELS 6 Xposition Yposition Zposition Zrotation Xrotation Yrotation
                    JOINT lThumb2_End
                    {
                      OFFSET 1.8127 -1.216 2.2227
                      CHANNELS 6 Xposition Yposition Zposition Zrotation Xrotation Yrotation
                      End Site
                      {
                        OFFSET 0.0181 -0.0122 0.0222
                      }
                    }
                  }
                }
                JOINT lCarpal1
                {
                  OFFSET 0.9571 1.114 1.7695
                  CHANNELS 6 Xposition Yposition Zposition Zrotation Xrotation Yrotation
                  JOINT lIndex1
                  {
                    OFFSET 4.1246 0.487 4.1451
                    CHANNELS 6 Xposition Yposition Zposition Zrotation Xrotation Yrotation
                    JOINT lIndex2
                    {
                      OFFSET 3.4052 -1.454 2.7682
                      CHANNELS 6 Xposition Yposition Zposition Zrotation Xrotation Yrotation
                      JOINT lIndex2_End
                      {
                        OFFSET 1.4531 -1.795 1.2713
                        CHANNELS 6 Xposition Yposition Zposition Zrotation Xrotation Yrotation
                        End Site
                        {
                          OFFSET 0.0145 -0.0179 0.0127
                        }
                      }
                    }
                  }
                  JOINT lMid1
                  {
                    OFFSET 5.6954 0.21 2.1184
                    CHANNELS 6 Xposition Yposition Zposition Zrotation Xrotation Yrotation
                    JOINT lMid2
                    {
                      OFFSET 3.9766 -1.54 2.3863
                      CHANNELS 6 Xposition Yposition Zposition Zrotation Xrotation Yrotation
                      JOINT lMid2_End
                      {
                        OFFSET 1.4042 -1.926 1.125
                        CHANNELS 6 Xposition Yposition Zposition Zrotation Xrotation Yrotation
                        End Site
                        {
                          OFFSET 0.014 -0.0193 0.0113
                        }
                      }
                    }
                  }
                }
                JOINT lCarpal2
                {
                  OFFSET 2.0956 0.66 -0.3894
                  CHANNELS 6 Xposition Yposition Zposition Zrotation Xrotation Yrotation
                  JOINT lRing1
                  {
                    OFFSET 5.0395 -0.09 2.4971
                    CHANNELS 6 Xposition Yposition Zposition Zrotation Xrotation Yrotation
                    JOINT lRing2
                    {
                      OFFSET 3.7921 -1.552 1.4806
                      CHANNELS 6 Xposition Yposition Zposition Zrotation Xrotation Yrotation
                      JOINT lRing2_End
                      {
                        OFFSET 1.4655 -1.808 0.9609
                        CHANNELS 6 Xposition Yposition Zposition Zrotation Xrotation Yrotation
                        End Site
                        {
                          OFFSET 0.0147 -0.0181 0.0096
                        }
                      }
                    }
                  }
                  JOINT lPinky1
                  {
                    OFFSET 4.9141 -1.269 0.3591
                    CHANNELS 6 Xposition Yposition Zposition Zrotation Xrotation Yrotation
                    JOINT lPinky2
                    {
                      OFFSET 3.1477 -1.685 0.8462
                      CHANNELS 6 Xposition Yposition Zposition Zrotation Xrotation Yrotation
                      JOINT lPinky2_End
                      {
                        OFFSET 0.8055 -1.585 0.7955
                        CHANNELS 6 Xposition Yposition Zposition Zrotation Xrotation Yrotation
                        End Site
                        {
                          OFFSET 0.0081 -0.0158 0.008
                        }
                      }
                    }
                  }
                }
              }
            }
          }
        }
        JOINT rCollar
        {
          OFFSET -1.7069 20.075 5.0056
          CHANNELS 6 Xposition Yposition Zposition Zrotation Xrotation Yrotation
          JOINT rShldr
          {
            OFFSET -13.6458 -0.047 -4.849
            CHANNELS 6 Xposition Yposition Zposition Zrotation Xrotation Yrotation
            JOINT rForeArm
            {
              OFFSET -28.3255 -0.9759 2.2888
              CHANNELS 6 Xposition Yposition Zposition Zrotation Xrotation Yrotation
              JOINT rHand
              {
                OFFSET -22.1583 -0.53 10.8316
                CHANNELS 6 Xposition Yposition Zposition Zrotation Xrotation Yrotation
                JOINT rThumb1
                {
                  OFFSET -0.786 0.112 2.5817
                  CHANNELS 6 Xposition Yposition Zposition Zrotation Xrotation Yrotation
                  JOINT rThumb2
                  {
                    OFFSET -0.3601 -0.878 4.2331
                    CHANNELS 6 Xposition Yposition Zposition Zrotation Xrotation Yrotation
                    JOINT rThumb2_End
                    {
                      OFFSET -1.8127 -1.216 2.2227
                      CHANNELS 6 Xposition Yposition Zposition Zrotation Xrotation Yrotation
                      End Site
                      {
                        OFFSET -0.0181 -0.0122 0.0222
                      }
                    }
                  }
                }
                JOINT rCarpal1
                {
                  OFFSET -0.9571 1.114 1.7695
                  CHANNELS 6 Xposition Yposition Zposition Zrotation Xrotation Yrotation
                  JOINT rIndex1
                  {
                    OFFSET -4.1246 0.487 4.1451
                    CHANNELS 6 Xposition Yposition Zposition Zrotation Xrotation Yrotation
                    JOINT rIndex2
                    {
                      OFFSET -3.4052 -1.454 2.7682
                      CHANNELS 6 Xposition Yposition Zposition Zrotation Xrotation Yrotation
                      JOINT rIndex2_End
                      {
                        OFFSET -1.4531 -1.795 1.2713
                        CHANNELS 6 Xposition Yposition Zposition Zrotation Xrotation Yrotation
                        End Site
                        {
                          OFFSET -0.0145 -0.018 0.0127
                        }
                      }
                    }
                  }
                  JOINT rMid1
                  {
                    OFFSET -5.6954 0.21 2.1184
                    CHANNELS 6 Xposition Yposition Zposition Zrotation Xrotation Yrotation
                    JOINT rMid2
                    {
                      OFFSET -3.9766 -1.54 2.3863
                      CHANNELS 6 Xposition Yposition Zposition Zrotation Xrotation Yrotation
                      JOINT rMid2_End
                      {
                        OFFSET -1.4042 -1.926 1.125
                        CHANNELS 6 Xposition Yposition Zposition Zrotation Xrotation Yrotation
                        End Site
                        {
                          OFFSET -0.014 -0.0193 0.0113
                        }
                      }
                    }
                  }
                }
                JOINT rCarpal2
                {
                  OFFSET -2.0956 0.66 -0.3894
                  CHANNELS 6 Xposition Yposition Zposition Zrotation Xrotation Yrotation
                  JOINT rRing1
                  {
                    OFFSET -5.0395 -0.09 2.4971
                    CHANNELS 6 Xposition Yposition Zposition Zrotation Xrotation Yrotation
                    JOINT rRing2
                    {
                      OFFSET -3.7921 -1.552 1.4806
                      CHANNELS 6 Xposition Yposition Zposition Zrotation Xrotation Yrotation
                      JOINT rRing2_End
                      {
                        OFFSET -1.4655 -1.808 0.9609
                        CHANNELS 6 Xposition Yposition Zposition Zrotation Xrotation Yrotation
                        End Site
                        {
                          OFFSET -0.0147 -0.0181 0.0096
                        }
                      }
                    }
                  }
                  JOINT rPinky1
                  {
                    OFFSET -4.9141 -1.269 0.3592
                    CHANNELS 6 Xposition Yposition Zposition Zrotation Xrotation Yrotation
                    JOINT rPinky2
                    {
                      OFFSET -3.1477 -1.685 0.8462
                      CHANNELS 6 Xposition Yposition Zposition Zrotation Xrotation Yrotation
                      JOINT rPinky2_End
                      {
                        OFFSET -0.8055 -1.585 0.7955
                        CHANNELS 6 Xposition Yposition Zposition Zrotation Xrotation Yrotation
                        End Site
                        {
                          OFFSET -0.0081 -0.0158 0.008
                        }
                      }
                    }
                  }
                }
              }
            }
          }
        }
      }
    }
  }
  JOINT lThigh
  {
    OFFSET 8.367 -8.2066 0.5982
    CHANNELS 6 Xposition Yposition Zposition Zrotation Xrotation Yrotation
    JOINT lShin
    {
      OFFSET 2.1923 -43.463 -0.4932
      CHANNELS 6 Xposition Yposition Zposition Zrotation Xrotation Yrotation
      JOINT lFoot
      {
        OFFSET 0.7333 -45.8593 -2.6451
        CHANNELS 6 Xposition Yposition Zposition Zrotation Xrotation Yrotation
        End Site
        {
          OFFSET 2.6618 -4.2699 12.3931
        }
      }
    }
  }
  JOINT rThigh
  {
    OFFSET -8.367 -8.2066 0.5982
    CHANNELS 6 Xposition Yposition Zposition Zrotation Xrotation Yrotation
    JOINT rShin
    {
      OFFSET -2.1923 -43.463 -0.4931
      CHANNELS 6 Xposition Yposition Zposition Zrotation Xrotation Yrotation
      JOINT rFoot
      {
        OFFSET -0.7333 -45.8593 -2.6451
        CHANNELS 6 Xposition Yposition Zposition Zrotation Xrotation Yrotation
        End Site
        {
          OFFSET -2.6618 -4.2699 12.3931
        }
      }
    }
  }
}
MOTION
Frames:	4
Frame Time:	0.0333333
1.73557 57.8274 13.994 0 31.8741 -0 0 -1.186 -1.5018 0.247119 -3.06609 -0.274931 -4.44089e-016 9.964 0.2134 0.480513 -6.1333 -0.537753 4.44089e-016 13.134 -3.2573 0.480513 -6.13331 -0.537753 -4.44089e-016 20.686 -1.6905 6.56971 18.5697 0.121929 -1.77636e-015 7.238 -0.1237 1.04821 6.15909 9.14559 1.7069 20.075 5.0056 -22.1824 -18.2263 -37.2306 13.6458 -0.047 -4.849 -68.6687 55.2433 30.6585 28.3255 -0.9759 2.2888 -6.17628 4.06934 -18.2162 22.1583 -0.53 10.8316 -5.03002 -41.3909 -23.9437 0.786 0.112 2.5817 -3.18055e-015 -6.36111e-015 -0 0.3601 -0.878 4.2331 -3.18055e-015 -1.27222e-014 6.36111e-015 1.8127 -1.216 2.2227 6.51527e-007 -1.09562e-006 -1.10715e-006 0.9571 1.114 1.7695 -1.59028e-015 0 -1.59028e-015 4.1246 0.487 4.1451 -1.59028e-015 -1.27222e-014 1.11319e-014 3.4052 -1.454 2.7682 -3.18055e-015 -6.36111e-015 4.77083e-015 1.4531 -1.795 1.2713 6.51527e-007 -1.09562e-006 -1.10715e-006 5.6954 0.21 2.1184 -1.59028e-015 -1.27222e-014 1.11319e-014 3.9766 -1.54 2.3863 -3.18055e-015 -6.36111e-015 4.77083e-015 1.4042 -1.926 1.125 6.51527e-007 -1.09562e-006 -1.10715e-006 2.0956 0.66 -0.3894 -1.59028e-015 0 -1.59028e-015 5.0395 -0.09 2.4971 -1.59028e-015 -1.27222e-014 1.11319e-014 3.7921 -1.552 1.4806 -3.18055e-015 -6.36111e-015 4.77083e-015 1.4655 -1.808 0.9609 6.51527e-007 -1.09562e-006 -1.10715e-006 4.9141 -1.269 0.3591 -1.59028e-015 -1.27222e-014 1.11319e-014 3.1477 -1.685 0.8462 -3.18055e-015 -6.36111e-015 4.77083e-015 0.8055 -1.585 0.7955 6.51527e-007 -1.09562e-006 -1.10715e-006 -1.7069 20.075 5.0056 4.59596 13.7793 25.6776 -13.6458 -0.047 -4.849 43.0228 -3.00926 -29.2328 -28.3255 -0.9759 2.2888 22.8189 23.2737 59.4521 -22.1583 -0.53 10.8316 -19.1199 -31.6342 12.3563 -0.786 0.112 2.5817 2.48481e-016 -3.97569e-016 -0 -0.3601 -0.878 4.2331 3.97569e-016 -2.98177e-016 3.18055e-015 -1.8127 -1.216 2.2227 -3.47873e-016 -1.09332e-015 -0 -0.9571 1.114 1.7695 1.09332e-015 -9.93923e-017 -0 -4.1246 0.487 4.1451 1.09332e-015 -8.94531e-016 -0 -3.4052 -1.454 2.7682 1.3418e-015 -1.98785e-016 -6.36111e-015 -1.4531 -1.795 1.2713 7.95139e-016 -9.93923e-017 -3.18055e-015 -5.6954 0.21 2.1184 1.09332e-015 -8.94531e-016 -0 -3.9766 -1.54 2.3863 1.3418e-015 -1.98785e-016 -6.36111e-015 -1.4042 -1.926 1.125 7.95139e-016 -9.93923e-017 -3.18055e-015 -2.0956 0.66 -0.3894 1.09332e-015 -9.93923e-017 -0 -5.0395 -0.09 2.4971 1.09332e-015 -8.94531e-016 -0 -3.7921 -1.552 1.4806 1.3418e-015 -1.98785e-016 -6.36111e-015 -1.4655 -1.808 0.9609 7.95139e-016 -9.93923e-017 -3.18055e-015 -4.9141 -1.269 0.3592 1.09332e-015 -8.94531e-016 -0 -3.1477 -1.685 0.8462 1.3418e-015 -1.98785e-016 -6.36111e-015 -0.8055 -1.585 0.7955 7.95139e-016 -9.93923e-017 -3.18055e-015 8.367 -8.2066 0.5982 58.6486 -16.0286 22.7329 2.1923 -43.463 -0.4932 2.35198 80.361 2.6195 0.7333 -45.8593 -2.6451 -49.9921 46.3039 61.979 -8.367 -8.2066 0.5982 -58.6677 -16.016 -22.7585 -2.1923 -43.463 -0.4931 -2.4541 80.3548 -2.52261 -0.7333 -45.8593 -2.6451 49.9522 46.3253 -61.96 
1.73557 57.8932 13.8536 0 32.2496 -0 0 -1.186 -1.5018 0.247758 -3.15615 -0.274287 2.22045e-016 9.964 0.2134 0.481453 -6.31343 -0.536102 0 13.134 -3.2573 0.481454 -6.31343 -0.536102 4.44089e-016 20.686 -1.6905 6.88315 18.549 0.129098 0 7.238 -0.1237 1.0366 6.40532 9.21594 1.7069 20.075 5.0056 -22.3538 -18.1204 -37.257 13.6458 -0.047 -4.849 -68.4784 55.2898 30.6131 28.3255 -0.9759 2.2888 -6.17625 4.06937 -18.2162 22.1583 -0.53 10.8316 -5.2141 -41.381 -24.0139 0.786 0.112 2.5817 -4.25612e-007 -1.90204e-006 1.68337e-006 0.3601 -0.878 4.2331 2.11868e-030 -1.90833e-014 6.36111e-015 1.8127 -1.216 2.2227 4.25612e-007 1.90204e-006 -1.68337e-006 0.9571 1.114 1.7695 1.59028e-015 -3.18055e-015 3.18055e-015 4.1246 0.487 4.1451 -4.25612e-007 -1.90204e-006 1.68337e-006 3.4052 -1.454 2.7682 3.18055e-015 -2.8625e-014 6.36111e-015 1.4531 -1.795 1.2713 4.25612e-007 1.90204e-006 -1.68337e-006 5.6954 0.21 2.1184 -4.25612e-007 -1.90204e-006 1.68337e-006 3.9766 -1.54 2.3863 3.18055e-015 -2.8625e-014 6.36111e-015 1.4042 -1.926 1.125 4.25612e-007 1.90204e-006 -1.68337e-006 2.0956 0.66 -0.3894 1.59028e-015 -3.18055e-015 3.18055e-015 5.0395 -0.09 2.4971 -4.25612e-007 -1.90204e-006 1.68337e-006 3.7921 -1.552 1.4806 3.18055e-015 -2.8625e-014 6.36111e-015 1.4655 -1.808 0.9609 4.25612e-007 1.90204e-006 -1.68337e-006 4.9141 -1.269 0.3591 -4.25612e-007 -1.90204e-006 1.68337e-006 3.1477 -1.685 0.8462 3.18055e-015 -2.8625e-014 6.36111e-015 0.8055 -1.585 0.7955 4.25612e-007 1.90204e-006 -1.68337e-006 -1.7069 20.075 5.0056 4.59596 13.7793 25.6776 -13.6458 -0.047 -4.849 43.0228 -3.00927 -29.2328 -28.3255 -0.9759 2.2888 22.8189 23.2737 59.4521 -22.1583 -0.53 10.8316 -19.1199 -31.6342 12.3563 -0.786 0.112 2.5817 2.45247e-007 -1.29184e-006 -1.21291e-006 -0.3601 -0.878 4.2331 -0 -9.93923e-017 -0 -1.8127 -1.216 2.2227 -1.04362e-015 -5.96354e-016 -0 -0.9571 1.114 1.7695 6.4605e-016 7.95139e-016 -3.18055e-015 -4.1246 0.487 4.1451 2.45247e-007 -1.29184e-006 -1.21291e-006 -3.4052 -1.454 2.7682 -4.96962e-016 9.93923e-017 3.18055e-015 -1.4531 -1.795 1.2713 -5.96354e-016 -2.98177e-016 3.18055e-015 -5.6954 0.21 2.1184 2.45247e-007 -1.29184e-006 -1.21291e-006 -3.9766 -1.54 2.3863 -4.96962e-016 9.93923e-017 3.18055e-015 -1.4042 -1.926 1.125 -5.96354e-016 -2.98177e-016 3.18055e-015 -2.0956 0.66 -0.3894 6.4605e-016 7.95139e-016 -3.18055e-015 -5.0395 -0.09 2.4971 2.45247e-007 -1.29184e-006 -1.21291e-006 -3.7921 -1.552 1.4806 -4.96962e-016 9.93923e-017 3.18055e-015 -1.4655 -1.808 0.9609 -5.96354e-016 -2.98177e-016 3.18055e-015 -4.9141 -1.269 0.3592 2.45247e-007 -1.29184e-006 -1.21291e-006 -3.1477 -1.685 0.8462 -4.96962e-016 9.93923e-017 3.18055e-015 -0.8055 -1.585 0.7955 -5.96354e-016 -2.98177e-016 3.18055e-015 8.367 -8.2066 0.5982 58.5832 -16.546 22.8345 2.1923 -43.463 -0.4932 2.46854 80.5601 2.52879 0.7333 -45.8593 -2.6451 -50.3603 46.1358 62.2823 -8.367 -8.2066 0.5982 -58.6023 -16.5334 -22.8601 -2.1923 -43.463 -0.4931 -2.57202 80.5535 -2.43093 -0.7333 -45.8593 -2.6451 50.3207 46.1575 -62.2639 
1.73558 57.959 13.713 0 32.6251 -0 0 -1.186 -1.5018 0.248396 -3.24619 -0.273638 0 9.964 0.2134 0.482396 -6.49353 -0.534442 -4.44089e-016 13.134 -3.2573 0.482397 -6.49352 -0.534442 4.44089e-016 20.686 -1.6905 7.19687 18.529 0.136315 1.77636e-015 7.238 -0.1237 1.02468 6.65143 9.28633 1.7069 20.075 5.0056 -22.525 -18.0145 -37.2832 13.6458 -0.047 -4.849 -68.2879 55.3361 30.5673 28.3255 -0.9759 2.2888 -6.17626 4.06934 -18.2162 22.1583 -0.53 10.8316 -5.39814 -41.3711 -24.0841 0.786 0.112 2.5817 -4.2981e-006 -2.29212e-006 -1.52928e-006 0.3601 -0.878 4.2331 1.67188e-006 3.34622e-006 -5.48185e-006 1.8127 -1.216 2.2227 1.0205e-006 4.43922e-006 -4.37204e-006 0.9571 1.114 1.7695 1.59028e-015 -3.18055e-015 -1.59028e-015 4.1246 0.487 4.1451 -4.2981e-006 -2.29212e-006 -1.52928e-006 3.4052 -1.454 2.7682 1.67188e-006 3.34622e-006 -5.48185e-006 1.4531 -1.795 1.2713 1.0205e-006 4.43922e-006 -4.37204e-006 5.6954 0.21 2.1184 -4.2981e-006 -2.29212e-006 -1.52928e-006 3.9766 -1.54 2.3863 1.67188e-006 3.34622e-006 -5.48185e-006 1.4042 -1.926 1.125 1.0205e-006 4.43922e-006 -4.37204e-006 2.0956 0.66 -0.3894 1.59028e-015 -3.18055e-015 -1.59028e-015 5.0395 -0.09 2.4971 -4.2981e-006 -2.29212e-006 -1.52928e-006 3.7921 -1.552 1.4806 1.67188e-006 3.34622e-006 -5.48185e-006 1.4655 -1.808 0.9609 1.0205e-006 4.43922e-006 -4.37204e-006 4.9141 -1.269 0.3591 -4.2981e-006 -2.29212e-006 -1.52928e-006 3.1477 -1.685 0.8462 1.67188e-006 3.34622e-006 -5.48185e-006 0.8055 -1.585 0.7955 1.0205e-006 4.43922e-006 -4.37204e-006 -1.7069 20.075 5.0056 4.59596 13.7792 25.6776 -13.6458 -0.047 -4.849 43.0228 -3.00925 -29.2328 -28.3255 -0.9759 2.2888 22.8189 23.2737 59.4521 -22.1583 -0.53 10.8316 -19.1199 -31.6342 12.3563 -0.786 0.112 2.5817 5.96354e-016 2.98177e-016 -6.36111e-015 -0.3601 -0.878 4.2331 7.95139e-016 -5.96354e-016 -6.36111e-015 -1.8127 -1.216 2.2227 -8.94531e-016 -1.98785e-016 -0 -0.9571 1.114 1.7695 5.96354e-016 2.98177e-016 -6.36111e-015 -4.1246 0.487 4.1451 8.94531e-016 -8.94531e-016 -0 -3.4052 -1.454 2.7682 4.96962e-017 -1.98785e-016 -3.18055e-015 -1.4531 -1.795 1.2713 9.93923e-017 -2.98177e-016 -6.36111e-015 -5.6954 0.21 2.1184 8.94531e-016 -8.94531e-016 -0 -3.9766 -1.54 2.3863 4.96962e-017 -1.98785e-016 -3.18055e-015 -1.4042 -1.926 1.125 9.93923e-017 -2.98177e-016 -6.36111e-015 -2.0956 0.66 -0.3894 5.96354e-016 2.98177e-016 -6.36111e-015 -5.0395 -0.09 2.4971 8.94531e-016 -8.94531e-016 -0 -3.7921 -1.552 1.4806 4.96962e-017 -1.98785e-016 -3.18055e-015 -1.4655 -1.808 0.9609 9.93923e-017 -2.98177e-016 -6.36111e-015 -4.9141 -1.269 0.3592 8.94531e-016 -8.94531e-016 -0 -3.1477 -1.685 0.8462 4.96962e-017 -1.98785e-016 -3.18055e-015 -0.8055 -1.585 0.7955 9.93923e-017 -2.98177e-016 -6.36111e-015 8.367 -8.2066 0.5982 58.5186 -17.0636 22.9356 2.1923 -43.463 -0.4932 2.59045 80.759 2.43281 0.7333 -45.8593 -2.6451 -50.7264 45.9667 62.5835 -8.367 -8.2066 0.5982 -58.5377 -17.051 -22.9613 -2.1923 -43.463 -0.4931 -2.69504 80.7521 -2.33426 -0.7333 -45.8593 -2.6451 50.6871 45.9886 -62.5655 
1.73559 58.0248 13.572 0 33.0006 -0 0 -1.186 -1.5018 0.249035 -3.33625 -0.272988 -2.22045e-016 9.964 0.2134 0.483346 -6.67363 -0.532778 0 13.134 -3.2573 0.483346 -6.67362 -0.532778 -4.44089e-016 20.686 -1.6905 7.51075 18.5093 0.143612 0 7.238 -0.1237 1.01246 6.89743 9.35679 1.7069 20.075 5.0056 -22.6961 -17.9085 -37.309 13.6458 -0.047 -4.849 -68.097 55.3824 30.5212 28.3255 -0.9759 2.2888 -6.17628 4.06936 -18.2162 22.1583 -0.53 10.8316 -5.58208 -41.3609 -24.1542 0.786 0.112 2.5817 1.11319e-014 3.18055e-015 6.36111e-015 0.3601 -0.878 4.2331 6.513e-007 -1.0917e-006 -1.11113e-006 1.8127 -1.216 2.2227 6.513e-007 -1.0917e-006 -1.11113e-006 0.9571 1.114 1.7695 1.59028e-015 3.18055e-015 1.59028e-015 4.1246 0.487 4.1451 3.18055e-015 0 1.11319e-014 3.4052 -1.454 2.7682 6.513e-007 -1.0917e-006 -1.11113e-006 1.4531 -1.795 1.2713 6.513e-007 -1.0917e-006 -1.11113e-006 5.6954 0.21 2.1184 3.18055e-015 0 1.11319e-014 3.9766 -1.54 2.3863 6.513e-007 -1.0917e-006 -1.11113e-006 1.4042 -1.926 1.125 6.513e-007 -1.0917e-006 -1.11113e-006 2.0956 0.66 -0.3894 1.59028e-015 3.18055e-015 1.59028e-015 5.0395 -0.09 2.4971 3.18055e-015 0 1.11319e-014 3.7921 -1.552 1.4806 6.513e-007 -1.0917e-006 -1.11113e-006 1.4655 -1.808 0.9609 6.513e-007 -1.0917e-006 -1.11113e-006 4.9141 -1.269 0.3591 3.18055e-015 0 1.11319e-014 3.1477 -1.685 0.8462 6.513e-007 -1.0917e-006 -1.11113e-006 0.8055 -1.585 0.7955 6.513e-007 -1.0917e-006 -1.11113e-006 -1.7069 20.075 5.0056 4.59596 13.7792 25.6776 -13.6458 -0.047 -4.849 43.0228 -3.00928 -29.2328 -28.3255 -0.9759 2.2888 22.8189 23.2737 59.4521 -22.1583 -0.53 10.8316 -19.1199 -31.6342 12.3563 -0.786 0.112 2.5817 -1.98785e-016 3.97569e-016 -0 -0.3601 -0.878 4.2331 -7.95139e-016 0 -0 -1.8127 -1.216 2.2227 4.96962e-017 2.98177e-016 -3.18055e-015 -0.9571 1.114 1.7695 5.96354e-016 9.93923e-017 -0 -4.1246 0.487 4.1451 6.95746e-016 -1.49089e-015 6.36111e-015 -3.4052 -1.454 2.7682 -1.3418e-015 4.96962e-016 -3.18055e-015 -1.4531 -1.795 1.2713 -7.95139e-016 9.93923e-017 -3.18055e-015 -5.6954 0.21 2.1184 6.95746e-016 -1.49089e-015 6.36111e-015 -3.9766 -1.54 2.3863 -1.3418e-015 4.96962e-016 -3.18055e-015 -1.4042 -1.926 1.125 -7.95139e-016 9.93923e-017 -3.18055e-015 -2.0956 0.66 -0.3894 5.96354e-016 9.93923e-017 -0 -5.0395 -0.09 2.4971 6.95746e-016 -1.49089e-015 6.36111e-015 -3.7921 -1.552 1.4806 -1.3418e-015 4.96962e-016 -3.18055e-015 -1.4655 -1.808 0.9609 -7.95139e-016 9.93923e-017 -3.18055e-015 -4.9141 -1.269 0.3592 6.95746e-016 -1.49089e-015 6.36111e-015 -3.1477 -1.685 0.8462 -1.3418e-015 4.96962e-016 -3.18055e-015 -0.8055 -1.585 0.7955 -7.95139e-016 9.93923e-017 -3.18055e-015 8.367 -8.2066 0.5982 58.4548 -17.5814 23.0363 2.1923 -43.463 -0.4932 2.7172 80.9578 2.332 0.7333 -45.8593 -2.6451 -51.0902 45.7963 62.8825 -8.367 -8.2066 0.5982 -58.4737 -17.5691 -23.0621 -2.1923 -43.463 -0.4931 -2.82348 80.9506 -2.23234 -0.7333 -45.8593 -2.6451 51.0515 45.8185 -62.8652 
